<svg width="1280" height="640" viewBox="0 0 1280 640" fill="none" xmlns="http://www.w3.org/2000/svg">
<defs>
  <linearGradient id="bg" x1="0" y1="0" x2="1280" y2="640" gradientUnits="userSpaceOnUse">
    <stop stop-color="#0D0A14"/>
    <stop offset="0.5" stop-color="#151022"/>
    <stop offset="1" stop-color="#0B0913"/>
  </linearGradient>
  <linearGradient id="accent" x1="250" y1="110" x2="980" y2="520" gradientUnits="userSpaceOnUse">
    <stop stop-color="#A5093E"/>
    <stop offset="1" stop-color="#7C3AED"/>
  </linearGradient>
  <radialGradient id="glowL" cx="0" cy="0" r="1" gradientUnits="userSpaceOnUse" gradientTransform="translate(250 130) rotate(46.4) scale(280 210)">
    <stop stop-color="#E11D48" stop-opacity="0.28"/>
    <stop offset="1" stop-color="#E11D48" stop-opacity="0"/>
  </radialGradient>
  <radialGradient id="glowR" cx="0" cy="0" r="1" gradientUnits="userSpaceOnUse" gradientTransform="translate(1030 500) rotate(-132) scale(320 240)">
    <stop stop-color="#8B5CF6" stop-opacity="0.24"/>
    <stop offset="1" stop-color="#8B5CF6" stop-opacity="0"/>
  </radialGradient>
  <filter id="blur" x="-100" y="-100" width="1480" height="840" filterUnits="userSpaceOnUse">
    <feGaussianBlur stdDeviation="40"/>
  </filter>
</defs>

<rect width="1280" height="640" rx="28" fill="url(#bg)"/>
<g filter="url(#blur)">
  <ellipse cx="250" cy="140" rx="180" ry="120" fill="url(#glowL)"/>
  <ellipse cx="1050" cy="510" rx="210" ry="150" fill="url(#glowR)"/>
</g>

<path d="M84 74H1196" stroke="rgba(255,255,255,0.08)" stroke-width="2"/>
<path d="M84 566H1196" stroke="rgba(255,255,255,0.08)" stroke-width="2"/>

<g opacity="0.7">
  <circle cx="118" cy="108" r="3" fill="#E11D48"/>
  <circle cx="1162" cy="532" r="3" fill="#8B5CF6"/>
  <circle cx="1127" cy="108" r="2" fill="#E11D48"/>
  <circle cx="152" cy="532" r="2" fill="#8B5CF6"/>
</g>

<g transform="translate(120 135)">
  <path d="M158 17C135 44 118 66 99 86C83 103 63 117 28 126L66 155L74 204L120 175C145 185 171 194 209 199L235 252L259 195C298 193 323 186 356 173L403 205L409 156L452 130C412 117 392 104 375 87C360 72 347 58 319 17L260 55L209 0L158 17Z" fill="rgba(255,255,255,0.04)" stroke="url(#accent)" stroke-width="4"/>
  <path d="M209 63L173 104L152 91L143 125L108 136L133 161L127 193L162 183L181 207L196 176L222 178L238 145L264 147L280 176L295 150L328 155L313 125L341 108L309 98L299 63L269 78L242 56L223 90L209 63Z" fill="url(#accent)"/>
  <circle cx="226" cy="125" r="26" fill="#0D0A14" stroke="rgba(255,255,255,0.15)" stroke-width="3"/>
  <path d="M211 125C211 116.716 217.716 110 226 110C234.284 110 241 116.716 241 125C241 133.284 234.284 140 226 140C217.716 140 211 133.284 211 125Z" fill="url(#accent)"/>
  <circle cx="233" cy="119" r="5" fill="#F8FAFC" fill-opacity="0.95"/>
</g>

<text x="450" y="235" fill="#F8FAFC" font-family="Segoe UI, Ubuntu, Arial, sans-serif" font-size="68" font-weight="800" letter-spacing="1.2">MTProxy Slayer</text>
<text x="452" y="290" fill="#C7D2FE" font-family="Segoe UI, Ubuntu, Arial, sans-serif" font-size="28" font-weight="600">FakeTLS • Anti-DPI • systemd-ready • auto-refresh</text>

<rect x="452" y="340" width="330" height="52" rx="14" fill="rgba(255,255,255,0.06)" stroke="rgba(255,255,255,0.08)"/>
<text x="476" y="373" fill="#F8FAFC" font-family="Consolas, Menlo, monospace" font-size="22" font-weight="700">ee + SECRET + HEX(domain)</text>

<rect x="452" y="420" width="230" height="42" rx="12" fill="rgba(225,29,72,0.12)" stroke="rgba(225,29,72,0.28)"/>
<text x="476" y="448" fill="#FCA5A5" font-family="Segoe UI, Ubuntu, Arial, sans-serif" font-size="20" font-weight="700">TLS 1.3 camouflage</text>

<rect x="694" y="420" width="210" height="42" rx="12" fill="rgba(124,58,237,0.12)" stroke="rgba(124,58,237,0.28)"/>
<text x="717" y="448" fill="#DDD6FE" font-family="Segoe UI, Ubuntu, Arial, sans-serif" font-size="20" font-weight="700">4h config refresh</text>

<text x="452" y="518" fill="#94A3B8" font-family="Segoe UI, Ubuntu, Arial, sans-serif" font-size="19">by Yafoxin Dev • t.me/yafoxindev</text>
</svg>