<svg width="512" height="512" viewBox="0 0 512 512" fill="none" xmlns="http://www.w3.org/2000/svg">
<defs>
  <linearGradient id="g" x1="98" y1="78" x2="415" y2="430" gradientUnits="userSpaceOnUse">
    <stop stop-color="#E11D48"/>
    <stop offset="1" stop-color="#7C3AED"/>
  </linearGradient>
  <radialGradient id="bg" cx="0" cy="0" r="1" gradientUnits="userSpaceOnUse" gradientTransform="translate(145 122) rotate(42.6) scale(255 206)">
    <stop stop-color="#1E1630"/>
    <stop offset="1" stop-color="#0B0913"/>
  </radialGradient>
</defs>
<rect width="512" height="512" rx="116" fill="url(#bg)"/>
<path d="M256 52L190 108L110 113L141 184L91 247L165 272L187 349L256 314L325 349L347 272L421 247L371 184L402 113L322 108L256 52Z" fill="rgba(255,255,255,0.05)" stroke="url(#g)" stroke-width="10"/>
<path d="M256 117L223 166L175 158L196 208L155 244L208 258L223 309L256 279L289 309L304 258L357 244L316 208L337 158L289 166L256 117Z" fill="url(#g)"/>
<circle cx="256" cy="216" r="45" fill="#0B0913" stroke="rgba(255,255,255,0.18)" stroke-width="6"/>
<path d="M228 216C228 200.536 240.536 188 256 188C271.464 188 284 200.536 284 216C284 231.464 271.464 244 256 244C240.536 244 228 231.464 228 216Z" fill="url(#g)"/>
<circle cx="268" cy="204" r="10" fill="#F8FAFC"/>
<path d="M181 404H331" stroke="rgba(255,255,255,0.12)" stroke-width="8" stroke-linecap="round"/>
<text x="256" y="382" text-anchor="middle" fill="#F8FAFC" font-family="Segoe UI, Ubuntu, Arial, sans-serif" font-size="48" font-weight="800">MS</text>
</svg>